<svg preserveAspectRatio="none" overflow="visible" style="display: block;" width="35" height="35" viewBox="0 0 35 35" fill="none" xmlns="http://www.w3.org/2000/svg">
<g id="twemoji:aries" clip-path="url(#clip0_0_14)">
<path id="Vector" d="M35 31.1111C35 32.1425 34.5903 33.1317 33.861 33.861C33.1317 34.5903 32.1425 35 31.1111 35H3.88889C2.85749 35 1.86834 34.5903 1.13903 33.861C0.409721 33.1317 0 32.1425 0 31.1111V3.88889C0 2.85749 0.409721 1.86834 1.13903 1.13903C1.86834 0.409721 2.85749 0 3.88889 0L31.1111 0C32.1425 0 33.1317 0.409721 33.861 1.13903C34.5903 1.86834 35 2.85749 35 3.88889V31.1111Z" fill="#EE1C25"/>
<g id="fa7-solid:gemini">
<path id="Vector_2" d="M22.7794 10.4899C23.1919 10.1243 23.82 10.1618 24.1888 10.5743C24.5544 10.9868 24.5169 11.618 24.1044 11.9868C24.02 12.0618 23.3825 12.6055 22.2825 13.1368C22.0263 13.2618 21.745 13.3836 21.4388 13.4993V22.9743C21.745 23.093 22.0263 23.2118 22.2825 23.3368C22.8513 23.6118 23.295 23.8899 23.6013 24.1024C23.695 24.168 23.7731 24.2305 23.8419 24.2805C23.8794 24.3086 23.9138 24.3305 23.9419 24.3555C23.9481 24.3586 23.9513 24.3618 23.9575 24.368C23.9981 24.4024 24.0325 24.4305 24.0575 24.4493C24.07 24.4586 24.0794 24.468 24.0856 24.4743C24.0888 24.4774 24.095 24.4805 24.095 24.4836L24.0981 24.4868H24.1013C24.2044 24.5774 24.2856 24.6868 24.3419 24.8055C24.5106 25.1586 24.4606 25.5899 24.1856 25.8993C24.1763 25.9118 24.1638 25.9211 24.1513 25.9336C23.7794 26.3149 23.1763 26.343 22.7763 25.9868C22.7669 25.9774 22.7294 25.9461 22.6669 25.8993C22.6544 25.8899 22.6388 25.8774 22.62 25.8649C22.5606 25.8211 22.4888 25.768 22.3981 25.7055C22.3294 25.6586 22.2513 25.6086 22.1669 25.5555C21.9606 25.4274 21.7044 25.2805 21.4044 25.1336C21.1731 25.0211 20.9169 24.9086 20.6325 24.8055C20.2075 24.6461 19.7263 24.5055 19.1919 24.4024C19.0138 24.368 18.8294 24.3368 18.6388 24.3149C18.2606 24.2649 17.8575 24.2368 17.4325 24.2368C15.7388 24.2368 14.3888 24.6868 13.4638 25.1368C13.3575 25.1868 13.2606 25.2399 13.1669 25.2899C13.0075 25.3774 12.8638 25.4586 12.7356 25.5368C12.6325 25.6024 12.5388 25.6618 12.4575 25.7149C12.4044 25.7524 12.3575 25.7868 12.3138 25.818C12.2544 25.8618 12.2044 25.8961 12.17 25.9243C12.1263 25.9586 12.1013 25.9805 12.0919 25.9868C11.6794 26.3524 11.0513 26.3149 10.6825 25.8993C10.6138 25.8211 10.5575 25.7368 10.52 25.6461C10.4825 25.5555 10.4544 25.4618 10.4419 25.368C10.3981 25.0493 10.5106 24.718 10.7669 24.4868C10.7731 24.4805 10.7856 24.4711 10.8044 24.4555L10.8138 24.4461L10.9138 24.3649C10.9669 24.3243 11.0294 24.2774 11.1075 24.2211C11.1575 24.1836 11.2106 24.143 11.27 24.1024C11.5763 23.8899 12.02 23.6118 12.5888 23.3368C12.845 23.2118 13.1263 23.0899 13.4325 22.9743V13.4993C13.1325 13.3836 12.8513 13.2618 12.595 13.1399C11.495 12.6055 10.8606 12.0618 10.7763 11.9868C10.3638 11.6211 10.3263 10.9899 10.6919 10.5743C11.0575 10.1618 11.6888 10.1243 12.1013 10.4899C12.145 10.5274 12.6325 10.9336 13.47 11.3399C14.395 11.7899 15.745 12.2399 17.4388 12.2399C19.1325 12.2399 20.4825 11.7899 21.4075 11.3399C22.245 10.9336 22.7325 10.5274 22.7763 10.4899H22.7794ZM19.4388 14.0618C18.8231 14.1711 18.1575 14.2399 17.4388 14.2399C16.72 14.2399 16.0544 14.1711 15.4388 14.0618V22.418C15.8325 22.3461 16.2481 22.293 16.6856 22.2649C16.9294 22.2493 17.1794 22.2399 17.4356 22.2399C18.1544 22.2399 18.8231 22.3086 19.4356 22.418V14.0618H19.4388Z" fill="white"/>
</g>
</g>
<defs>
<clipPath id="clip0_0_14">
<rect width="35" height="35" fill="white"/>
</clipPath>
</defs>
</svg>
